<svg width="200" height="40" viewBox="0 0 200 40" fill="none" xmlns="http://www.w3.org/2000/svg">
<g clip-path="url(#clip0_120_165)">
<path d="M3 19.53C4.04308 20.4572 7.21321 19.825 8.53788 19.825C9.85727 19.825 10.9836 19.2351 12.3226 19.2351C14.628 19.2351 16.907 19.53 19.204 19.53C22.9987 19.53 26.8127 19.1495 30.5911 18.8747C34.7486 18.5723 38.9079 18.6453 43.0759 18.6453C51.0385 18.6453 59.0163 18.3504 66.9969 18.3504C68.7609 18.3504 69.1256 18.3504 70.8896 18.3504C72.9996 18.3504 76.8164 18.853 78.8896 19.0713C82.5336 19.4549 86.7263 19.0713 90.3896 19.0713C95.9603 19.0713 96.819 19.0726 102.39 19.0726C104.485 19.0726 109.827 19.7626 111.775 19.0713C114.045 18.2658 117.999 19.0726 120.39 19.0726C124.954 19.0726 128.326 18.2905 132.89 18.3505C138.816 18.4285 143.835 18.6453 149.786 18.6453C154.194 18.6453 158.601 18.6453 163.009 18.6453C164.679 18.6453 166.204 19.2351 167.891 19.2351C170.065 19.2351 172.238 19.2351 174.412 19.2351C178.91 19.2351 183.375 18.9402 187.863 18.9402C189.88 18.9402 191.869 18.5921 193.876 18.4159C197.676 18.0826 201.171 17.9016 205.018 18.0555" stroke="url(#paint0_linear_120_165)" stroke-width="3" stroke-linecap="round"/>
<path d="M-6 21.5735C-4.95692 22.5007 -1.78679 21.8684 -0.462124 21.8684C0.857267 21.8684 1.98356 21.2786 3.32264 21.2786C5.62801 21.2786 7.90696 21.5735 10.204 21.5735C13.9987 21.5735 17.8127 21.1929 21.5911 20.9181C25.7486 20.6158 29.9079 20.6888 34.0759 20.6888C42.0385 20.6888 50.0163 20.3938 57.9969 20.3938C59.7609 20.3938 60.1256 20.3938 61.8896 20.3938C63.9996 20.3938 67.8164 20.8965 69.8896 21.1147C73.5336 21.4983 77.7263 21.1147 81.3896 21.1147C86.9603 21.1147 87.819 21.1161 93.3896 21.1161C95.4846 21.1161 100.827 21.806 102.775 21.1147C105.045 20.3093 108.999 21.1161 111.39 21.1161C115.954 21.1161 119.326 20.3339 123.89 20.394C129.816 20.472 134.835 20.6888 140.786 20.6888C145.194 20.6888 149.601 20.6888 154.009 20.6888C155.679 20.6888 157.204 21.2786 158.891 21.2786C161.065 21.2786 163.238 21.2786 165.412 21.2786C169.91 21.2786 174.375 20.9837 178.863 20.9837C180.88 20.9837 182.869 20.6355 184.876 20.4594C188.676 20.1261 192.171 19.9451 196.018 20.0989" stroke="url(#paint1_linear_120_165)" stroke-width="3" stroke-linecap="round"/>
<g id="power">
<circle cx="27.4355" cy="20.521" r="14.6118" fill="#2E2E2E"/>
<path d="M25.5188 36.3565C25.4155 36.2876 25.404 36.2417 25.4844 36.2417C25.5533 36.2417 25.6566 36.2991 25.6911 36.3565C25.783 36.4943 25.737 36.4943 25.5188 36.3565Z" fill="#98C459"/>
<path d="M28.7344 36.3564C28.9526 36.299 29.4808 36.2416 29.9057 36.2301C30.8474 36.1957 31.123 36.0693 30.4799 35.9545C30.2158 35.9086 29.9516 35.9086 29.8827 35.9545C29.8253 35.989 29.7679 35.966 29.7679 35.9086C29.7679 35.8397 29.6531 35.7822 29.5153 35.7822C29.3201 35.7822 29.2856 35.8167 29.4119 35.8856C29.6301 36.0234 27.7353 36.1842 27.1611 36.0693C26.92 36.0234 26.7707 36.0349 26.8166 36.0923C26.8741 36.1382 27.23 36.2186 27.6205 36.2531C28.2865 36.322 28.2636 36.3335 27.4138 36.299C26.9085 36.2875 26.0013 36.1612 25.4042 36.0234C24.807 35.8741 24.0376 35.7363 23.7046 35.7019C23.3601 35.6674 23.1419 35.5985 23.2108 35.5641C23.2797 35.5181 23.0386 35.3918 22.6826 35.277C22.3151 35.1621 21.9247 34.9899 21.8213 34.8865C21.7065 34.7947 21.6146 34.7487 21.6146 34.7947C21.6146 34.8406 21.4309 34.7372 21.2127 34.565C20.6385 34.1286 20.7993 34.0942 21.5801 34.4961C22.6481 35.0473 23.1075 35.231 23.2567 35.1621C23.3371 35.1392 23.3142 35.1047 23.1993 35.1047C23.096 35.0932 22.9697 35.0358 22.9237 34.9669C22.8778 34.8865 22.9697 34.8521 23.1764 34.8636C23.762 34.9095 23.8194 34.8865 23.6931 34.6454C23.6242 34.5305 23.1534 34.2664 22.6251 34.0597C21.649 33.6808 21.4079 33.543 21.5227 33.4281C21.5572 33.3822 21.7639 33.4626 21.9706 33.6004C22.5218 33.9334 23.808 34.3238 23.9458 34.186C24.0606 34.0712 23.05 33.7152 22.6251 33.7152C22.5103 33.7152 22.4184 33.6578 22.4184 33.5889C22.4184 33.5085 22.5448 33.4855 22.7629 33.5315C22.9811 33.5659 23.096 33.5544 23.05 33.4855C23.0156 33.4166 22.8778 33.3707 22.7629 33.3707C22.6481 33.3707 22.5103 33.3133 22.4644 33.2444C22.4184 33.1525 22.4988 33.141 22.7629 33.1984C23.0271 33.2559 23.1075 33.2444 23.0615 33.1525C23.0156 33.0836 22.9352 33.0262 22.8778 33.0262C22.8204 33.0262 22.5792 32.8425 22.3381 32.6128C21.9361 32.2338 21.9247 32.1994 22.1888 32.2568C22.3495 32.2913 22.6711 32.3602 22.9122 32.3946C23.1419 32.4405 23.3716 32.5324 23.4175 32.6013C23.4634 32.6817 23.4175 32.6932 23.2682 32.6358C23.1534 32.5898 22.9008 32.5324 22.7055 32.498C22.384 32.452 22.3955 32.4635 22.8204 32.6702C23.073 32.7965 23.2338 32.8999 23.1649 32.9114C23.1075 32.9228 23.1764 32.9917 23.3371 33.0606C23.5323 33.1525 24.497 33.1984 26.3228 33.2099C28.8607 33.2099 29.7679 33.141 29.7679 32.9114C29.7679 32.8654 29.8713 32.8425 29.9976 32.8769C30.1239 32.9114 30.2273 32.8769 30.2273 32.808C30.2273 32.7506 30.3076 32.7161 30.411 32.7621C30.5143 32.7965 30.6292 32.785 30.6751 32.7161C30.7096 32.6587 31.1115 32.5094 31.5479 32.3946C33.3393 31.9238 35.1192 30.9706 37.06 29.4433C37.6571 28.9725 38.0131 28.5706 39.1385 27.1122C39.2878 26.9055 39.2878 26.917 39.1385 27.25C38.7825 27.9734 37.5652 29.3515 36.7958 29.8682C34.9585 31.1314 34.3154 31.6022 34.2695 31.74C34.1317 32.1534 37.1174 30.029 37.9786 29.0988C38.6677 28.3639 39.8734 26.6988 39.8734 26.4921C39.8734 26.4232 39.9997 26.1361 40.1605 25.8375C40.3213 25.5389 40.4476 25.2059 40.4476 25.0911C40.4476 24.9647 40.505 24.8729 40.5624 24.8729C40.7232 24.8729 40.7002 24.5169 40.528 24.3676C40.4476 24.2987 40.4132 24.2528 40.4361 24.2757C40.4706 24.2872 40.5624 24.1609 40.6428 23.9886C40.7232 23.8049 40.7691 23.759 40.7347 23.8738C40.7117 23.9772 40.7347 24.069 40.7921 24.069C40.9414 24.069 41.0907 23.7475 41.1825 23.2652C41.2514 22.9551 41.24 22.9092 41.1366 23.0355C41.0333 23.1733 41.0218 23.1504 41.0447 22.9207C41.0677 22.7599 41.1481 22.6451 41.2285 22.668C41.3204 22.6795 41.3663 22.5417 41.3663 22.2776C41.3663 21.9446 41.3318 21.8757 41.1825 21.9331C41.0333 21.9905 41.0103 21.9561 41.0677 21.7494C41.1022 21.6001 41.1366 21.313 41.1366 21.1063C41.1366 20.8536 41.1825 20.7503 41.2744 20.8077C41.3663 20.8651 41.3893 20.624 41.3433 19.9005C41.3089 19.3263 41.3204 18.9359 41.3778 18.9703C41.4352 19.0048 41.4811 18.867 41.4811 18.6718C41.4811 18.4765 41.4352 18.3387 41.3778 18.3732C41.3318 18.4076 41.2859 18.2354 41.2859 18.0057C41.2859 17.3856 40.6199 15.3071 40.149 14.4458C39.7356 13.6879 39.6782 13.5042 39.8849 13.5042C39.9423 13.5042 39.9768 13.5501 39.9423 13.596C39.9194 13.642 40.0342 13.9406 40.2179 14.2506C40.6888 15.0545 40.6428 14.6296 40.1605 13.6305C39.4256 12.1147 38.1509 10.5874 36.5776 9.31268C35.8772 8.74999 35.6819 8.4629 36.2561 8.84186C36.4169 8.94521 36.5432 9.00263 36.5432 8.96818C36.5432 8.88779 35.3604 8.10691 35.2341 8.10691C35.1652 8.10691 35.2226 8.1873 35.3489 8.29065C35.4637 8.394 35.2111 8.27917 34.7632 8.04949C34.3269 7.81982 33.8675 7.52125 33.7527 7.38345C33.6379 7.24565 33.5804 7.19971 33.6264 7.29158C33.6953 7.4179 33.6608 7.44087 33.4886 7.37197C32.5354 6.99301 31.1115 6.59108 30.1124 6.39586C29.4464 6.28103 29.01 6.16619 29.1363 6.15471C29.3315 6.13174 29.3201 6.12026 29.0789 6.03988C28.677 5.91356 28.4818 5.90207 28.5507 6.02839C28.5851 6.07433 28.0798 6.15471 27.4367 6.20064C26.7937 6.2351 26.0817 6.29251 25.8635 6.32696C25.5534 6.3729 25.519 6.36141 25.6913 6.28103C25.8176 6.22361 26.0702 6.16619 26.2539 6.16619C26.4377 6.15471 26.564 6.12026 26.5181 6.08581C26.4262 5.99394 25.2778 6.15471 25.3353 6.25806C25.3697 6.304 25.3008 6.33845 25.1975 6.34993C24.7726 6.36141 23.452 6.78631 22.4529 7.2112C21.8672 7.46383 21.339 7.63609 21.2816 7.60164C21.2242 7.5557 21.006 7.68202 20.8107 7.87724C20.6155 8.06098 20.3973 8.22175 20.3399 8.22175C20.271 8.22175 20.0988 8.3251 19.961 8.43994C19.8346 8.56625 19.2375 9.08301 18.6518 9.59977C18.0662 10.1165 17.3083 10.8859 16.9638 11.3223C16.3666 12.0687 15.9417 12.4821 16.1599 12.1147C16.5848 11.3797 17.848 10.0591 19.4327 8.68109L19.7198 8.43994L19.3294 8.64664C18.4796 9.10598 15.8728 11.9539 16.0451 12.241C16.0795 12.2869 15.7924 12.93 15.425 13.6649C15.0575 14.3999 14.6441 15.399 14.5063 15.8928C14.1273 17.3282 13.8747 19.6938 13.978 21.0833C14.024 21.7494 14.0699 22.4613 14.0814 22.668C14.0814 22.8633 14.1388 23.0355 14.1847 23.0355C14.2422 23.0355 14.2422 23.0814 14.2077 23.1504C14.1733 23.2078 14.1962 23.4489 14.2536 23.6901C14.4029 24.1954 14.3225 24.3332 14.1388 23.9083C13.978 23.5752 13.7713 23.4949 13.8747 23.8164C13.9206 23.9197 14.0699 24.2987 14.2307 24.6432C14.3914 24.9877 14.5407 25.4585 14.5752 25.6767L14.6211 26.0787L14.4374 25.7686C14.1733 25.2978 14.1158 25.3782 14.357 25.8834C14.4718 26.1131 14.69 26.6299 14.8278 27.0203C14.9771 27.4107 15.1608 27.8012 15.2527 27.8701C15.3446 27.939 15.4135 28.0538 15.4135 28.1112C15.4135 28.1801 15.5743 28.4328 15.781 28.6854C16.1025 29.0988 16.114 29.1333 15.8843 29.007C15.6661 28.8921 15.6317 28.8921 15.7121 29.0299C16.0106 29.5467 17.159 31.0051 17.6987 31.5678C18.0432 31.9238 18.2959 32.2223 18.2499 32.2223C18.1925 32.2223 18.0317 32.0845 17.871 31.9123C17.7102 31.7286 17.0441 31.0395 16.3781 30.3735C15.7235 29.696 15.1838 29.1103 15.1838 29.0759C15.1838 29.0299 14.9771 28.7314 14.713 28.4098C14.1847 27.7323 13.8058 27.0433 13.8058 26.7332C13.8058 26.6184 13.7599 26.4806 13.7139 26.4232C13.6565 26.3543 13.4957 25.9983 13.3464 25.6193C13.1972 25.2404 13.0479 24.8844 13.0019 24.8155C12.956 24.758 12.8527 24.4135 12.7838 24.069C12.7034 23.7245 12.6 23.2882 12.5426 23.0929C12.3014 22.3006 12.1981 21.6001 12.1866 20.8766C12.1751 20.4517 12.1177 20.0153 12.0603 19.889C11.9799 19.7512 11.9799 19.5905 12.0603 19.4297C12.1866 19.1541 12.4622 16.8574 12.3818 16.7311C12.3014 16.6162 12.7034 15.0659 13.0019 14.308C13.4153 13.2515 14.1847 11.862 14.6096 11.3797C15.1953 10.7137 16.0451 9.57681 16.1369 9.33565C16.1829 9.2323 16.2977 9.10598 16.4126 9.06005C16.5274 9.01411 17.0097 8.58922 17.492 8.1184C17.9743 7.63609 18.5829 7.11933 18.8471 6.95856C19.1112 6.79779 19.5016 6.55663 19.6968 6.41883C20.4892 5.86762 21.2471 5.45421 21.9591 5.17861C23.073 4.75372 24.9219 4.31734 25.6338 4.30586C26.3458 4.29438 27.3104 4.16806 27.6205 4.03026C27.7468 3.97284 27.8157 3.9958 27.8157 4.11064C27.8157 4.23696 28.2406 4.31734 29.6875 4.46663C30.7096 4.58147 31.6627 4.66185 31.8005 4.66185C32.0187 4.66185 33.3278 5.09822 34.0628 5.40828C34.2235 5.47718 34.258 5.4657 34.2006 5.37383C34.0742 5.16713 34.2006 5.20158 35.0389 5.61498C36.9796 6.56812 39.506 8.56625 40.7232 10.1165C41.3663 10.9204 41.4122 10.9663 41.217 10.5644C41.1136 10.3577 40.884 10.0247 40.7117 9.81796C40.4476 9.49642 40.4476 9.46197 40.6658 9.65719C41.0907 10.0132 41.6074 10.8285 41.5271 11.0122C41.4926 11.1041 41.5156 11.219 41.5845 11.2649C41.6649 11.3108 41.6878 11.2534 41.6419 11.1271C41.5041 10.7022 42.0438 11.506 42.5606 12.4707C43.2151 13.7338 43.8352 15.5253 44.1912 17.1789C44.9377 20.7733 44.1568 24.8614 42.0668 28.295C41.7108 28.8806 41.3204 29.5467 41.2055 29.7878C40.9873 30.2012 39.0466 32.2223 38.8629 32.2223C38.8169 32.2223 39.1385 31.8434 39.5863 31.3841C40.0227 30.9247 40.6658 30.1323 40.9988 29.6271C41.6534 28.6625 41.5385 28.7658 40.3328 30.2242C39.9194 30.718 39.1155 31.5104 38.5413 31.9812C36.7958 33.4281 35.3374 34.186 32.5584 35.1047C31.9153 35.3229 31.3756 35.5296 31.3756 35.5641C31.3756 35.7133 32.8455 35.277 34.0513 34.7832C34.4187 34.6339 34.7632 34.542 34.8207 34.5765C34.8666 34.6109 34.9355 34.5994 34.9585 34.542C35.0044 34.4387 36.1183 33.8875 36.5432 33.7726C36.704 33.7267 36.8992 33.6348 36.9911 33.5659C37.0714 33.497 37.2207 33.4281 37.3241 33.4166C37.6227 33.3707 38.9662 32.3946 39.816 31.6022C40.2524 31.2003 40.6543 30.8903 40.6888 30.9132C40.7347 30.9362 40.9414 30.7295 41.1481 30.4424C41.573 29.8453 41.6993 29.8338 41.4237 30.4194C41.2514 30.7869 40.3557 31.6597 39.5174 32.2798C39.3567 32.4061 38.9088 32.7391 38.5413 33.0262C38.1624 33.3018 37.5193 33.7726 37.1059 34.0597C36.6925 34.3468 36.348 34.6224 36.348 34.6683C36.3365 34.7258 36.2906 34.8061 36.2446 34.8406C36.1987 34.8865 36.1987 34.8521 36.2561 34.7602C36.3135 34.6569 36.2906 34.6224 36.1872 34.6569C36.0953 34.6913 36.0379 34.7717 36.0494 34.8291C36.0609 34.8865 35.9231 34.9325 35.7393 34.921C35.5556 34.9095 35.4293 34.9439 35.4523 34.9784C35.5556 35.1392 33.0867 36.0234 32.6273 36.0004C32.5354 36.0004 32.857 35.8741 33.3393 35.7363C34.4187 35.4148 34.6369 35.3344 34.5795 35.2655C34.5451 35.2425 34.1317 35.3344 33.6493 35.4837C33.167 35.633 32.5125 35.7937 32.1909 35.8397C31.5593 35.92 31.4675 36.1038 32.0876 36.0579C32.2943 36.0349 32.1335 36.0923 31.7316 36.1727C30.8703 36.3564 28.1028 36.5172 28.7344 36.3564ZM31.4904 36.0808C31.4904 36.0579 31.3871 36.0119 31.2608 35.9775C31.1344 35.943 31.0311 35.966 31.0311 36.0234C31.0311 36.0808 31.1344 36.1268 31.2608 36.1268C31.3871 36.1268 31.4904 36.1038 31.4904 36.0808ZM25.8635 35.5526C25.8635 35.4952 25.6683 35.4492 25.4386 35.4492C25.0022 35.4607 25.0022 35.4607 25.3467 35.5526C25.8405 35.6789 25.8635 35.6789 25.8635 35.5526ZM35.1652 35.0932C35.3145 34.9899 35.3145 34.9784 35.1652 34.9784C35.0733 34.9784 34.9125 35.0358 34.8207 35.0932C34.6714 35.1966 34.6714 35.2081 34.8207 35.2081C34.9125 35.2081 35.0733 35.1507 35.1652 35.0932ZM25.8061 34.9784C25.9669 34.9095 25.7487 34.875 25.1515 34.875C24.6348 34.8636 24.2558 34.8176 24.2558 34.7487C24.2558 34.6913 24.1754 34.6339 24.0836 34.6339C23.8654 34.6339 23.9113 34.898 24.141 35.0014C24.3821 35.1047 25.5305 35.0932 25.8061 34.9784ZM29.7105 34.0482C30.7899 33.7956 31.2608 33.6233 31.2608 33.4626C31.2608 33.4166 31.3756 33.3707 31.5134 33.3707C31.8005 33.3707 33.3737 32.7965 33.2934 32.7276C33.2704 32.7047 32.478 32.8769 31.5479 33.1066C30.3191 33.4166 29.9287 33.5544 30.1239 33.6119C30.2847 33.6578 30.5143 33.6119 30.6636 33.52C30.8129 33.4281 30.9966 33.3822 31.0655 33.4166C31.1459 33.4396 31.123 33.4741 31.0081 33.4741C30.9048 33.4855 30.8014 33.5315 30.7785 33.6004C30.767 33.6578 30.434 33.7726 30.055 33.8415C29.3545 33.9678 28.3325 34.2779 28.5851 34.2894C28.654 34.2894 29.1593 34.186 29.7105 34.0482ZM35.5671 31.3955C36.348 30.8673 37.3585 30.0405 37.0025 30.2242C36.7384 30.362 34.4762 32.0156 34.4762 32.0731C34.4762 32.1305 34.5565 32.0845 35.5671 31.3955ZM41.5615 19.2804C41.5271 19.1656 41.5041 19.2345 41.5041 19.4182C41.5041 19.6134 41.5271 19.6938 41.5615 19.6249C41.5845 19.5445 41.5845 19.3837 41.5615 19.2804ZM13.9666 17.6727C14.0355 17.087 14.2422 16.1454 14.4489 15.4908C14.5063 15.3186 14.4948 15.3186 14.4029 15.4564C14.1503 15.8468 13.5876 18.5225 13.7828 18.3962C13.8402 18.3617 13.9206 18.0402 13.9666 17.6727ZM15.8499 12.5281C15.8958 12.4592 15.8269 12.5051 15.7121 12.6429C15.4709 12.8955 14.4948 14.9052 14.4948 15.1348C14.4948 15.2152 14.7819 14.687 15.1379 13.975C15.4824 13.2515 15.8039 12.597 15.8499 12.5281ZM41.9749 11.7242C41.9405 11.6209 41.883 11.5635 41.8601 11.5979C41.8256 11.6324 41.8371 11.7013 41.883 11.7702C41.9864 11.9539 42.0553 11.9194 41.9749 11.7242ZM30.9507 6.304C30.8703 6.28103 30.7325 6.28103 30.6636 6.304C30.5832 6.33845 30.6407 6.36141 30.8014 6.36141C30.9622 6.36141 31.0196 6.33845 30.9507 6.304ZM27.5057 5.95949C27.3564 5.93652 27.1267 5.93652 26.9889 5.95949C26.8396 5.98246 26.9544 6.00542 27.2415 6.00542C27.5286 6.00542 27.6435 5.98246 27.5057 5.95949Z" fill="#98C459"/>
<path d="M21.4424 34.0946C21.0634 34.0372 20.8567 33.8994 20.6845 33.5778C20.5237 33.2792 20.6615 33.3252 21.385 33.773C21.7295 33.9912 21.9706 34.1635 21.9017 34.152C21.8443 34.152 21.6376 34.1175 21.4424 34.0946Z" fill="#98C459"/>
<path d="M37.634 34.0023C37.7603 33.8989 37.967 33.7611 38.0933 33.7037L38.323 33.5889L38.0933 33.7726C37.967 33.876 37.7603 34.0138 37.634 34.0712L37.4043 34.186L37.634 34.0023Z" fill="#98C459"/>
<path d="M39.2991 32.877C39.2991 32.8541 39.4713 32.6933 39.678 32.4981L40.0455 32.165L39.7125 32.544C39.3909 32.8885 39.2991 32.9689 39.2991 32.877Z" fill="#98C459"/>
<path d="M19.4784 32.2339C19.088 31.9928 18.732 31.7171 18.686 31.6368C18.6286 31.5334 18.6746 31.5449 18.8124 31.6597C18.9272 31.7631 19.3291 32.0157 19.6966 32.2224C20.0526 32.4176 20.3512 32.6129 20.3512 32.6358C20.3512 32.7507 20.133 32.6473 19.4784 32.2339Z" fill="#98C459"/>
<path d="M29.1363 32.5787C29.3315 32.5212 29.699 32.4753 29.9516 32.4638C30.2157 32.4638 30.6176 32.372 30.8358 32.2801C31.0655 32.1882 31.3756 32.1078 31.5134 32.1078C31.6626 32.1078 31.9612 32.016 32.1794 31.8896C32.834 31.5451 33.2244 31.4762 32.6962 31.7978C32.4435 31.9585 31.9268 32.1423 31.5478 32.2227C31.1688 32.3031 30.7784 32.4064 30.6865 32.4523C30.5947 32.4983 30.1238 32.5672 29.653 32.6016C29.1133 32.6476 28.9181 32.6361 29.1363 32.5787Z" fill="#98C459"/>
<path d="M38.1509 32.659C38.1509 32.636 38.2542 32.5327 38.3805 32.4178C38.5069 32.3145 38.6102 32.2685 38.6102 32.3374C38.6102 32.3949 38.5069 32.4982 38.3805 32.5671C38.2542 32.636 38.1509 32.6705 38.1509 32.659Z" fill="#98C459"/>
<path d="M18.514 32.2227C18.4221 32.1653 18.3992 32.1079 18.4566 32.1079C18.5255 32.1079 18.6518 32.1653 18.7437 32.2227C18.8356 32.2802 18.87 32.3376 18.8011 32.3376C18.7437 32.3376 18.6059 32.2802 18.514 32.2227Z" fill="#98C459"/>
<path d="M34.2465 31.0512C34.2809 31.0168 34.7058 30.7067 35.1996 30.3852C36.1757 29.7306 37.9212 28.1344 38.6332 27.2502C38.8743 26.9401 39.0695 26.7334 39.0695 26.7793C39.0695 26.8827 38.3461 27.7554 37.6341 28.5363C36.9795 29.2483 35.6819 30.2818 34.8781 30.7297C34.4991 30.9364 34.212 31.0857 34.2465 31.0512Z" fill="#98C459"/>
<path d="M17.9858 30.477L17.7676 30.2129L18.0317 30.4311C18.2729 30.6378 18.3418 30.7296 18.2499 30.7296C18.2269 30.7296 18.1121 30.6148 17.9858 30.477Z" fill="#98C459"/>
<path d="M15.0113 29.7303C14.4142 29.0068 13.461 27.5829 13.8285 27.9733C14.1041 28.2604 15.7692 30.4997 15.7118 30.4997C15.6774 30.4997 15.3558 30.1552 15.0113 29.7303Z" fill="#98C459"/>
<path d="M41.814 29.7538C42.0093 29.3748 42.17 29.1681 42.17 29.2944C42.17 29.3633 42.0552 29.5356 41.9289 29.6964C41.7796 29.8916 41.7337 29.9031 41.814 29.7538Z" fill="#98C459"/>
<path d="M42.3997 29.0991C42.3997 29.0531 42.503 28.8464 42.6293 28.6397C42.7556 28.433 42.859 28.3182 42.859 28.3756C42.859 28.4445 42.7556 28.6512 42.6293 28.8349C42.503 29.0302 42.3997 29.145 42.3997 29.0991Z" fill="#98C459"/>
<path d="M15.4708 27.7901C15.1952 27.3652 15.3445 27.3192 15.6431 27.7326C15.7809 27.9279 15.8383 28.0886 15.7809 28.0886C15.7235 28.0886 15.5857 27.9508 15.4708 27.7901Z" fill="#98C459"/>
<path d="M42.8591 27.9389C42.8591 27.6977 43.1347 27.1809 43.2381 27.2498C43.3185 27.2958 43.33 27.2498 43.284 27.1235C43.2381 27.0202 43.2496 26.9513 43.307 26.9857C43.3644 27.0202 43.4448 26.9742 43.4792 26.8709C43.5252 26.7675 43.5826 26.6986 43.6056 26.7331C43.64 26.7675 43.5711 27.0087 43.4448 27.2843C43.2725 27.6632 43.2151 27.7207 43.1692 27.5599C43.1233 27.3762 43.1118 27.3762 43.1003 27.5943C43.1003 27.7322 43.0429 27.8814 42.974 27.9159C42.9165 27.9503 42.8591 27.9618 42.8591 27.9389Z" fill="#98C459"/>
<path d="M15.0229 26.9861C14.931 26.7449 14.931 26.7104 15.0573 26.7104C15.1951 26.7104 15.31 27.032 15.1951 27.1124C15.1377 27.1468 15.0573 27.0894 15.0229 26.9861Z" fill="#98C459"/>
<path d="M39.5403 26.538C39.5403 26.4806 39.6092 26.2969 39.7011 26.1361C39.7929 25.9753 39.8618 25.9064 39.8618 25.9638C39.8618 26.0327 39.7929 26.205 39.7011 26.3658C39.6092 26.5265 39.5403 26.6069 39.5403 26.538Z" fill="#98C459"/>
<path d="M14.4489 24.8847C14.3455 24.7009 14.2651 24.4713 14.2651 24.3909C14.2766 24.3105 14.38 24.4368 14.5063 24.678C14.6326 24.9306 14.713 25.1488 14.6785 25.1832C14.6556 25.2177 14.5407 25.0799 14.4489 24.8847Z" fill="#98C459"/>
<path d="M44.1338 23.8855C44.1338 23.7591 44.1683 23.7247 44.2027 23.8166C44.2372 23.8969 44.2257 24.0003 44.1913 24.0347C44.1568 24.0807 44.1224 24.0118 44.1338 23.8855Z" fill="#98C459"/>
<path d="M14.4488 23.0816C14.4028 22.9208 14.3913 22.76 14.4143 22.7256C14.4488 22.7026 14.5062 22.8174 14.5406 22.9897C14.5866 23.1505 14.5981 23.3112 14.5751 23.3457C14.5406 23.3687 14.4832 23.2538 14.4488 23.0816Z" fill="#98C459"/>
<path d="M40.4705 16.0308C40.4705 15.87 40.4934 15.8126 40.5279 15.893C40.5508 15.9619 40.5508 16.0997 40.5279 16.1801C40.4934 16.249 40.4705 16.1916 40.4705 16.0308Z" fill="#98C459"/>
<path d="M40.0342 9.00298L39.7012 8.62402L40.0801 8.95705C40.2753 9.15227 40.4476 9.31304 40.4476 9.336C40.4476 9.42787 40.3557 9.34749 40.0342 9.00298Z" fill="#98C459"/>
<path d="M33.902 7.87704C33.8101 7.81962 33.7871 7.76221 33.8445 7.76221C33.9134 7.76221 34.0398 7.81962 34.1316 7.87704C34.2235 7.93446 34.2579 7.99188 34.189 7.99188C34.1316 7.99188 33.9938 7.93446 33.902 7.87704Z" fill="#98C459"/>
<path d="M27.768 25.16C27.096 25.16 26.5093 25.08 26.008 24.92C25.5067 24.7493 25.0853 24.5253 24.744 24.248C24.4027 23.9707 24.1413 23.6667 23.96 23.336C23.7893 23.0053 23.6987 22.664 23.688 22.312C23.688 22.216 23.72 22.1413 23.784 22.088C23.848 22.0347 23.928 22.008 24.024 22.008H24.808C24.904 22.008 24.9893 22.0293 25.064 22.072C25.1387 22.1147 25.2027 22.2053 25.256 22.344C25.3627 22.728 25.544 23.0267 25.8 23.24C26.0667 23.4533 26.3707 23.6027 26.712 23.688C27.064 23.7627 27.416 23.8 27.768 23.8C28.504 23.8 29.1013 23.624 29.56 23.272C30.0187 22.92 30.248 22.4027 30.248 21.72C30.248 21.0267 30.04 20.5307 29.624 20.232C29.208 19.9333 28.632 19.784 27.896 19.784H26.376C26.2693 19.784 26.1787 19.752 26.104 19.688C26.04 19.624 26.008 19.5333 26.008 19.416V18.984C26.008 18.888 26.024 18.808 26.056 18.744C26.0987 18.6693 26.1413 18.6053 26.184 18.552L29.288 15.16H24.568C24.4613 15.16 24.3707 15.128 24.296 15.064C24.232 15 24.2 14.9093 24.2 14.792V14.184C24.2 14.0667 24.232 13.976 24.296 13.912C24.3707 13.8373 24.4613 13.8 24.568 13.8H30.952C31.0693 13.8 31.16 13.8373 31.224 13.912C31.2987 13.976 31.336 14.0667 31.336 14.184V14.76C31.336 14.8347 31.3147 14.904 31.272 14.968C31.24 15.0213 31.2027 15.0747 31.16 15.128L28.072 18.568L28.328 18.584C29.032 18.6053 29.6453 18.7333 30.168 18.968C30.7013 19.2027 31.112 19.5547 31.4 20.024C31.6987 20.4827 31.848 21.064 31.848 21.768C31.848 22.4827 31.672 23.096 31.32 23.608C30.968 24.1093 30.4827 24.4933 29.864 24.76C29.2453 25.0267 28.5467 25.16 27.768 25.16Z" fill="#9BC75E"/>
</g>
<g filter="url(#filter0_d_120_165)" id="special_power">
<circle cx="62.3897" cy="19.9095" r="6.99546" fill="#2E2E2E"/>
<path d="M61.4722 27.4905C61.4227 27.4575 61.4172 27.4355 61.4557 27.4355C61.4887 27.4355 61.5381 27.463 61.5546 27.4905C61.5986 27.5565 61.5766 27.5565 61.4722 27.4905Z" fill="#98C459"/>
<path d="M63.0116 27.4907C63.1161 27.4633 63.369 27.4358 63.5724 27.4303C64.0232 27.4138 64.1552 27.3533 63.8473 27.2983C63.7209 27.2763 63.5944 27.2763 63.5614 27.2983C63.5339 27.3148 63.5064 27.3038 63.5064 27.2763C63.5064 27.2433 63.4515 27.2159 63.3855 27.2159C63.292 27.2159 63.2755 27.2324 63.336 27.2653C63.4405 27.3313 62.5333 27.4083 62.2584 27.3533C62.143 27.3313 62.0715 27.3368 62.0935 27.3643C62.121 27.3863 62.2914 27.4248 62.4784 27.4413C62.7972 27.4743 62.7862 27.4798 62.3794 27.4633C62.1375 27.4578 61.7032 27.3973 61.4173 27.3313C61.1314 27.2598 60.7631 27.1939 60.6036 27.1774C60.4387 27.1609 60.3342 27.1279 60.3672 27.1114C60.4002 27.0894 60.2847 27.0289 60.1143 26.974C59.9384 26.919 59.7515 26.8365 59.702 26.787C59.647 26.743 59.603 26.7211 59.603 26.743C59.603 26.765 59.5151 26.7156 59.4106 26.6331C59.1357 26.4242 59.2127 26.4077 59.5865 26.6001C60.0978 26.864 60.3177 26.952 60.3892 26.919C60.4277 26.908 60.4167 26.8915 60.3617 26.8915C60.3122 26.886 60.2518 26.8585 60.2298 26.8255C60.2078 26.787 60.2518 26.7705 60.3507 26.776C60.6311 26.798 60.6586 26.787 60.5981 26.6716C60.5651 26.6166 60.3397 26.4902 60.0868 26.3912C59.6195 26.2098 59.5041 26.1438 59.559 26.0888C59.5755 26.0668 59.6745 26.1053 59.7735 26.1713C60.0373 26.3307 60.6531 26.5176 60.7191 26.4517C60.774 26.3967 60.2902 26.2263 60.0868 26.2263C60.0318 26.2263 59.9879 26.1988 59.9879 26.1658C59.9879 26.1273 60.0483 26.1163 60.1528 26.1383C60.2573 26.1548 60.3122 26.1493 60.2902 26.1163C60.2737 26.0833 60.2078 26.0613 60.1528 26.0613C60.0978 26.0613 60.0318 26.0338 60.0099 26.0008C59.9879 25.9569 60.0263 25.9514 60.1528 25.9789C60.2792 26.0063 60.3177 26.0008 60.2957 25.9569C60.2737 25.9239 60.2353 25.8964 60.2078 25.8964C60.1803 25.8964 60.0648 25.8084 59.9494 25.6985C59.757 25.517 59.7515 25.5005 59.8779 25.528C59.9549 25.5445 60.1088 25.5775 60.2243 25.594C60.3342 25.616 60.4442 25.66 60.4662 25.693C60.4882 25.7315 60.4662 25.737 60.3947 25.7095C60.3397 25.6875 60.2188 25.66 60.1253 25.6435C59.9714 25.6215 59.9769 25.627 60.1803 25.726C60.3012 25.7864 60.3782 25.8359 60.3452 25.8414C60.3177 25.8469 60.3507 25.8799 60.4277 25.9129C60.5211 25.9569 60.983 25.9789 61.8571 25.9844C63.0721 25.9844 63.5064 25.9514 63.5064 25.8414C63.5064 25.8194 63.5559 25.8084 63.6164 25.8249C63.6769 25.8414 63.7264 25.8249 63.7264 25.7919C63.7264 25.7644 63.7648 25.7479 63.8143 25.7699C63.8638 25.7864 63.9188 25.7809 63.9408 25.7479C63.9573 25.7205 64.1497 25.649 64.3586 25.594C65.2163 25.3686 66.0684 24.9123 66.9975 24.1811C67.2834 23.9557 67.4539 23.7632 67.9926 23.065C68.0641 22.9661 68.0641 22.9716 67.9926 23.131C67.8222 23.4774 67.2394 24.1371 66.8711 24.3845C65.9914 24.9893 65.6836 25.2147 65.6616 25.2806C65.5956 25.4786 67.025 24.4615 67.4374 24.0161C67.7672 23.6643 68.3445 22.8671 68.3445 22.7681C68.3445 22.7352 68.405 22.5977 68.4819 22.4548C68.5589 22.3118 68.6194 22.1524 68.6194 22.0974C68.6194 22.0369 68.6469 21.993 68.6744 21.993C68.7513 21.993 68.7403 21.8225 68.6579 21.7511C68.6194 21.7181 68.6029 21.6961 68.6139 21.7071C68.6304 21.7126 68.6744 21.6521 68.7128 21.5696C68.7513 21.4817 68.7733 21.4597 68.7568 21.5147C68.7458 21.5641 68.7568 21.6081 68.7843 21.6081C68.8558 21.6081 68.9273 21.4542 68.9712 21.2233C69.0042 21.0748 68.9987 21.0528 68.9493 21.1133C68.8998 21.1793 68.8943 21.1683 68.9053 21.0583C68.9163 20.9814 68.9547 20.9264 68.9932 20.9374C69.0372 20.9429 69.0592 20.8769 69.0592 20.7505C69.0592 20.591 69.0427 20.558 68.9712 20.5855C68.8998 20.613 68.8888 20.5965 68.9163 20.4976C68.9328 20.4261 68.9493 20.2886 68.9493 20.1897C68.9493 20.0687 68.9712 20.0193 69.0152 20.0467C69.0592 20.0742 69.0702 19.9588 69.0482 19.6124C69.0317 19.3375 69.0372 19.1506 69.0647 19.1671C69.0922 19.1836 69.1142 19.1176 69.1142 19.0242C69.1142 18.9307 69.0922 18.8647 69.0647 18.8812C69.0427 18.8977 69.0207 18.8152 69.0207 18.7053C69.0207 18.4084 68.7019 17.4133 68.4764 17.001C68.2785 16.6381 68.251 16.5502 68.35 16.5502C68.3775 16.5502 68.394 16.5721 68.3775 16.5941C68.3665 16.6161 68.4215 16.7591 68.5094 16.9075C68.7348 17.2924 68.7128 17.0889 68.4819 16.6106C68.1301 15.8849 67.5198 15.1537 66.7666 14.5435C66.4313 14.2741 66.3378 14.1366 66.6127 14.3181C66.6897 14.3675 66.7501 14.395 66.7501 14.3785C66.7501 14.34 66.1839 13.9662 66.1234 13.9662C66.0904 13.9662 66.1179 14.0047 66.1784 14.0542C66.2333 14.1036 66.1124 14.0487 65.898 13.9387C65.6891 13.8288 65.4692 13.6858 65.4142 13.6198C65.3592 13.5539 65.3317 13.5319 65.3537 13.5759C65.3867 13.6363 65.3702 13.6473 65.2877 13.6143C64.8314 13.4329 64.1497 13.2405 63.6714 13.147C63.3525 13.0921 63.1436 13.0371 63.2041 13.0316C63.2975 13.0206 63.292 13.0151 63.1766 12.9766C62.9842 12.9161 62.8907 12.9106 62.9237 12.9711C62.9402 12.9931 62.6983 13.0316 62.3904 13.0536C62.0825 13.0701 61.7417 13.0975 61.6372 13.114C61.4888 13.136 61.4723 13.1305 61.5547 13.0921C61.6152 13.0646 61.7362 13.0371 61.8241 13.0371C61.9121 13.0316 61.9726 13.0151 61.9506 12.9986C61.9066 12.9546 61.3568 13.0316 61.3843 13.0811C61.4008 13.103 61.3678 13.1195 61.3183 13.125C61.1149 13.1305 60.4827 13.334 60.0044 13.5374C59.724 13.6583 59.4711 13.7408 59.4436 13.7243C59.4161 13.7023 59.3116 13.7628 59.2182 13.8562C59.1247 13.9442 59.0203 14.0212 58.9928 14.0212C58.9598 14.0212 58.8773 14.0707 58.8113 14.1256C58.7509 14.1861 58.465 14.4335 58.1846 14.6809C57.9042 14.9283 57.5414 15.2967 57.3764 15.5056C57.0905 15.8629 56.8871 16.0609 56.9916 15.8849C57.195 15.5331 57.7997 14.9008 58.5584 14.2411L58.6959 14.1256L58.509 14.2246C58.1021 14.4445 56.8541 15.808 56.9366 15.9454C56.9531 15.9674 56.8156 16.2753 56.6397 16.6271C56.4638 16.979 56.2659 17.4573 56.1999 17.6937C56.0185 18.3809 55.8975 19.5135 55.947 20.1787C55.969 20.4976 55.991 20.8384 55.9965 20.9374C55.9965 21.0309 56.024 21.1133 56.046 21.1133C56.0734 21.1133 56.0734 21.1353 56.0569 21.1683C56.0405 21.1958 56.0515 21.3112 56.0789 21.4267C56.1504 21.6686 56.1119 21.7346 56.024 21.5311C55.947 21.3717 55.848 21.3332 55.8975 21.4872C55.9195 21.5366 55.991 21.7181 56.0679 21.883C56.1449 22.0479 56.2164 22.2733 56.2329 22.3778L56.2549 22.5702L56.1669 22.4218C56.0405 22.1964 56.013 22.2349 56.1284 22.4768C56.1834 22.5867 56.2879 22.8341 56.3538 23.021C56.4253 23.208 56.5133 23.3949 56.5572 23.4279C56.6012 23.4609 56.6342 23.5158 56.6342 23.5433C56.6342 23.5763 56.7112 23.6973 56.8101 23.8182C56.9641 24.0161 56.9696 24.0326 56.8596 23.9722C56.7552 23.9172 56.7387 23.9172 56.7772 23.9832C56.9201 24.2306 57.4699 24.9288 57.7283 25.1982C57.8932 25.3686 58.0142 25.5115 57.9922 25.5115C57.9647 25.5115 57.8877 25.4456 57.8107 25.3631C57.7338 25.2751 57.4149 24.9453 57.096 24.6264C56.7827 24.302 56.5243 24.0216 56.5243 24.0052C56.5243 23.9832 56.4253 23.8402 56.2989 23.6863C56.046 23.3619 55.8645 23.032 55.8645 22.8836C55.8645 22.8286 55.8425 22.7627 55.8205 22.7352C55.7931 22.7022 55.7161 22.5317 55.6446 22.3503C55.5731 22.1689 55.5017 21.9985 55.4797 21.9655C55.4577 21.938 55.4082 21.7731 55.3752 21.6081C55.3367 21.4432 55.2873 21.2343 55.2598 21.1408C55.1443 20.7615 55.0948 20.4261 55.0893 20.0797C55.0838 19.8763 55.0564 19.6674 55.0289 19.6069C54.9904 19.541 54.9904 19.464 55.0289 19.387C55.0893 19.2551 55.2213 18.1555 55.1828 18.095C55.1443 18.0401 55.3367 17.2979 55.4797 16.935C55.6776 16.4292 56.046 15.764 56.2494 15.5331C56.5298 15.2142 56.9366 14.6699 56.9806 14.5545C57.0026 14.505 57.0575 14.4445 57.1125 14.4225C57.1675 14.4005 57.3984 14.1971 57.6293 13.9717C57.8602 13.7408 58.1516 13.4934 58.2781 13.4164C58.4045 13.3395 58.5914 13.224 58.6849 13.158C59.0642 12.8941 59.4271 12.6962 59.768 12.5643C60.3012 12.3608 61.1864 12.1519 61.5272 12.1464C61.8681 12.1409 62.3299 12.0805 62.4784 12.0145C62.5388 11.987 62.5718 11.998 62.5718 12.053C62.5718 12.1134 62.7752 12.1519 63.468 12.2234C63.9573 12.2784 64.4136 12.3169 64.4796 12.3169C64.584 12.3169 65.2108 12.5258 65.5626 12.6742C65.6396 12.7072 65.6561 12.7017 65.6286 12.6577C65.5681 12.5588 65.6286 12.5753 66.0299 12.7732C66.9591 13.2295 68.1686 14.1861 68.7513 14.9283C69.0592 15.3132 69.0812 15.3351 68.9877 15.1427C68.9383 15.0438 68.8283 14.8843 68.7458 14.7854C68.6194 14.6314 68.6194 14.6149 68.7238 14.7084C68.9273 14.8788 69.1747 15.2692 69.1362 15.3571C69.1197 15.4011 69.1307 15.4561 69.1637 15.4781C69.2021 15.5001 69.2131 15.4726 69.1912 15.4121C69.1252 15.2087 69.3836 15.5935 69.631 16.0554C69.9443 16.6601 70.2412 17.5178 70.4117 18.3094C70.769 20.0303 70.3952 21.9875 69.3946 23.6313C69.2241 23.9117 69.0372 24.2306 68.9822 24.346C68.8778 24.5439 67.9487 25.5115 67.8607 25.5115C67.8387 25.5115 67.9926 25.3301 68.2071 25.1102C68.416 24.8903 68.7238 24.5109 68.8833 24.269C69.1967 23.8072 69.1417 23.8567 68.5644 24.5549C68.3665 24.7913 67.9816 25.1707 67.7068 25.3961C66.8711 26.0888 66.1729 26.4517 64.8424 26.8915C64.5345 26.9959 64.2761 27.0949 64.2761 27.1114C64.2761 27.1829 64.9799 26.974 65.5571 26.7376C65.733 26.6661 65.898 26.6221 65.9255 26.6386C65.9475 26.6551 65.9804 26.6496 65.9914 26.6221C66.0134 26.5726 66.5467 26.3087 66.7501 26.2537C66.8271 26.2318 66.9206 26.1878 66.9646 26.1548C67.003 26.1218 67.0745 26.0888 67.124 26.0833C67.2669 26.0613 67.9102 25.594 68.317 25.2147C68.5259 25.0222 68.7183 24.8738 68.7348 24.8848C68.7568 24.8958 68.8558 24.7968 68.9547 24.6594C69.1582 24.3735 69.2186 24.368 69.0867 24.6484C69.0042 24.8243 68.5754 25.2422 68.1741 25.539C68.0971 25.5995 67.8827 25.7589 67.7068 25.8964C67.5253 26.0283 67.2174 26.2537 67.0195 26.3912C66.8216 26.5286 66.6567 26.6606 66.6567 26.6826C66.6512 26.7101 66.6292 26.7485 66.6072 26.765C66.5852 26.787 66.5852 26.7705 66.6127 26.7266C66.6402 26.6771 66.6292 26.6606 66.5797 26.6771C66.5357 26.6936 66.5082 26.7321 66.5137 26.7595C66.5192 26.787 66.4533 26.809 66.3653 26.8035C66.2773 26.798 66.2169 26.8145 66.2278 26.831C66.2773 26.908 65.0953 27.3313 64.8754 27.3203C64.8314 27.3203 64.9853 27.2598 65.2163 27.1939C65.733 27.0399 65.8375 27.0014 65.81 26.9685C65.7935 26.9575 65.5956 27.0014 65.3647 27.0729C65.1338 27.1444 64.8204 27.2214 64.6665 27.2433C64.3641 27.2818 64.3201 27.3698 64.617 27.3478C64.716 27.3368 64.639 27.3643 64.4466 27.4028C64.0342 27.4907 62.7093 27.5677 63.0116 27.4907ZM64.3311 27.3588C64.3311 27.3478 64.2816 27.3258 64.2212 27.3093C64.1607 27.2928 64.1112 27.3038 64.1112 27.3313C64.1112 27.3588 64.1607 27.3808 64.2212 27.3808C64.2816 27.3808 64.3311 27.3698 64.3311 27.3588ZM61.6372 27.1059C61.6372 27.0784 61.5437 27.0564 61.4338 27.0564C61.2249 27.0619 61.2249 27.0619 61.3898 27.1059C61.6262 27.1664 61.6372 27.1664 61.6372 27.1059ZM66.0904 26.886C66.1619 26.8365 66.1619 26.831 66.0904 26.831C66.0464 26.831 65.9695 26.8585 65.9255 26.886C65.854 26.9355 65.854 26.941 65.9255 26.941C65.9695 26.941 66.0464 26.9135 66.0904 26.886ZM61.6097 26.831C61.6867 26.798 61.5822 26.7815 61.2963 26.7815C61.0489 26.776 60.8675 26.754 60.8675 26.7211C60.8675 26.6936 60.829 26.6661 60.785 26.6661C60.6806 26.6661 60.7026 26.7925 60.8125 26.842C60.928 26.8915 61.4778 26.886 61.6097 26.831ZM63.479 26.3857C63.9957 26.2647 64.2212 26.1823 64.2212 26.1053C64.2212 26.0833 64.2761 26.0613 64.3421 26.0613C64.4796 26.0613 65.2327 25.7864 65.1943 25.7534C65.1833 25.7425 64.8039 25.8249 64.3586 25.9349C63.7703 26.0833 63.5834 26.1493 63.6769 26.1768C63.7538 26.1988 63.8638 26.1768 63.9353 26.1328C64.0067 26.0888 64.0947 26.0668 64.1277 26.0833C64.1662 26.0943 64.1552 26.1108 64.1002 26.1108C64.0507 26.1163 64.0012 26.1383 63.9903 26.1713C63.9848 26.1988 63.8253 26.2537 63.6439 26.2867C63.3085 26.3472 62.8192 26.4956 62.9402 26.5011C62.9732 26.5011 63.2151 26.4517 63.479 26.3857ZM66.2828 25.1157C66.6567 24.8628 67.1405 24.467 66.97 24.5549C66.8436 24.6209 65.7605 25.4126 65.7605 25.4401C65.7605 25.4676 65.799 25.4456 66.2828 25.1157ZM69.1527 19.3155C69.1362 19.2606 69.1252 19.2936 69.1252 19.3815C69.1252 19.475 69.1362 19.5135 69.1527 19.4805C69.1637 19.442 69.1637 19.365 69.1527 19.3155ZM55.9415 18.5459C55.9745 18.2655 56.0734 17.8146 56.1724 17.5013C56.1999 17.4188 56.1944 17.4188 56.1504 17.4848C56.0295 17.6717 55.7601 18.9527 55.8535 18.8922C55.881 18.8757 55.9195 18.7218 55.9415 18.5459ZM56.8431 16.0828C56.8651 16.0499 56.8321 16.0718 56.7772 16.1378C56.6617 16.2588 56.1944 17.2209 56.1944 17.3308C56.1944 17.3693 56.3318 17.1164 56.5023 16.7756C56.6672 16.4292 56.8211 16.1158 56.8431 16.0828ZM69.3506 15.698C69.3341 15.6485 69.3066 15.621 69.2956 15.6375C69.2791 15.654 69.2846 15.687 69.3066 15.72C69.3561 15.808 69.3891 15.7915 69.3506 15.698ZM64.0727 13.103C64.0342 13.0921 63.9683 13.0921 63.9353 13.103C63.8968 13.1195 63.9243 13.1305 64.0012 13.1305C64.0782 13.1305 64.1057 13.1195 64.0727 13.103ZM62.4234 12.9381C62.3519 12.9271 62.242 12.9271 62.176 12.9381C62.1045 12.9491 62.1595 12.9601 62.2969 12.9601C62.4344 12.9601 62.4894 12.9491 62.4234 12.9381Z" fill="#98C459"/>
<path d="M59.5206 26.4075C59.3392 26.38 59.2402 26.3141 59.1577 26.1601C59.0808 26.0172 59.1467 26.0392 59.4931 26.2536C59.658 26.358 59.7735 26.4405 59.7405 26.435C59.713 26.435 59.614 26.4185 59.5206 26.4075Z" fill="#98C459"/>
<path d="M67.2723 26.3634C67.3328 26.314 67.4317 26.248 67.4922 26.2205L67.6022 26.1655L67.4922 26.2535C67.4317 26.303 67.3328 26.3689 67.2723 26.3964L67.1624 26.4514L67.2723 26.3634Z" fill="#98C459"/>
<path d="M68.0696 25.8247C68.0696 25.8138 68.152 25.7368 68.251 25.6433L68.4269 25.4839L68.2675 25.6653C68.1136 25.8302 68.0696 25.8687 68.0696 25.8247Z" fill="#98C459"/>
<path d="M58.5804 25.5171C58.3934 25.4016 58.223 25.2697 58.201 25.2312C58.1735 25.1817 58.1955 25.1872 58.2615 25.2422C58.3165 25.2917 58.5089 25.4126 58.6848 25.5116C58.8553 25.605 58.9982 25.6985 58.9982 25.7095C58.9982 25.7645 58.8937 25.715 58.5804 25.5171Z" fill="#98C459"/>
<path d="M63.2041 25.6821C63.2975 25.6547 63.4735 25.6327 63.5944 25.6272C63.7209 25.6272 63.9133 25.5832 64.0178 25.5392C64.1277 25.4952 64.2762 25.4567 64.3421 25.4567C64.4136 25.4567 64.5565 25.4128 64.661 25.3523C64.9744 25.1873 65.1613 25.1544 64.9084 25.3083C64.7874 25.3853 64.54 25.4732 64.3586 25.5117C64.1772 25.5502 63.9903 25.5997 63.9463 25.6217C63.9023 25.6437 63.6769 25.6767 63.4515 25.6931C63.1931 25.7151 63.0996 25.7096 63.2041 25.6821Z" fill="#98C459"/>
<path d="M67.5198 25.7204C67.5198 25.7094 67.5693 25.6599 67.6297 25.605C67.6902 25.5555 67.7397 25.5335 67.7397 25.5665C67.7397 25.594 67.6902 25.6434 67.6297 25.6764C67.5693 25.7094 67.5198 25.7259 67.5198 25.7204Z" fill="#98C459"/>
<path d="M58.1186 25.5115C58.0747 25.484 58.0637 25.4565 58.0912 25.4565C58.1241 25.4565 58.1846 25.484 58.2286 25.5115C58.2726 25.539 58.2891 25.5665 58.2561 25.5665C58.2286 25.5665 58.1626 25.539 58.1186 25.5115Z" fill="#98C459"/>
<path d="M65.6505 24.9506C65.667 24.9341 65.8704 24.7856 66.1068 24.6317C66.5741 24.3183 67.4098 23.5541 67.7507 23.1308C67.8661 22.9824 67.9596 22.8834 67.9596 22.9054C67.9596 22.9549 67.6132 23.3727 67.2724 23.7466C66.959 24.0874 66.3377 24.5822 65.9529 24.7966C65.7715 24.8956 65.634 24.9671 65.6505 24.9506Z" fill="#98C459"/>
<path d="M57.8657 24.6758L57.7612 24.5493L57.8877 24.6538C58.0031 24.7527 58.0361 24.7967 57.9921 24.7967C57.9811 24.7967 57.9262 24.7417 57.8657 24.6758Z" fill="#98C459"/>
<path d="M56.4417 24.3183C56.1558 23.972 55.6995 23.2903 55.8754 23.4772C56.0074 23.6146 56.8045 24.6867 56.777 24.6867C56.7606 24.6867 56.6066 24.5218 56.4417 24.3183Z" fill="#98C459"/>
<path d="M69.2736 24.3295C69.3671 24.1481 69.4441 24.0491 69.4441 24.1096C69.4441 24.1426 69.3891 24.225 69.3286 24.302C69.2571 24.3955 69.2351 24.4009 69.2736 24.3295Z" fill="#98C459"/>
<path d="M69.554 24.016C69.554 23.994 69.6034 23.8951 69.6639 23.7961C69.7244 23.6971 69.7739 23.6422 69.7739 23.6697C69.7739 23.7026 69.7244 23.8016 69.6639 23.8896C69.6034 23.983 69.554 24.038 69.554 24.016Z" fill="#98C459"/>
<path d="M56.6616 23.3894C56.5297 23.186 56.6012 23.164 56.7441 23.3619C56.8101 23.4554 56.8376 23.5324 56.8101 23.5324C56.7826 23.5324 56.7166 23.4664 56.6616 23.3894Z" fill="#98C459"/>
<path d="M69.7739 23.4605C69.7739 23.345 69.9059 23.0976 69.9554 23.1306C69.9938 23.1526 69.9993 23.1306 69.9773 23.0701C69.9554 23.0206 69.9609 22.9877 69.9883 23.0041C70.0158 23.0206 70.0543 22.9987 70.0708 22.9492C70.0928 22.8997 70.1203 22.8667 70.1313 22.8832C70.1478 22.8997 70.1148 23.0151 70.0543 23.1471C69.9718 23.3285 69.9444 23.356 69.9224 23.279C69.9004 23.1911 69.8949 23.1911 69.8894 23.2955C69.8894 23.3615 69.8619 23.433 69.8289 23.4495C69.8014 23.466 69.7739 23.4715 69.7739 23.4605Z" fill="#98C459"/>
<path d="M56.4472 23.0045C56.4032 22.8891 56.4032 22.8726 56.4637 22.8726C56.5297 22.8726 56.5846 23.0265 56.5297 23.065C56.5022 23.0815 56.4637 23.054 56.4472 23.0045Z" fill="#98C459"/>
<path d="M68.1851 22.7898C68.1851 22.7623 68.218 22.6744 68.262 22.5974C68.306 22.5204 68.339 22.4875 68.339 22.5149C68.339 22.5479 68.306 22.6304 68.262 22.7074C68.218 22.7843 68.1851 22.8228 68.1851 22.7898Z" fill="#98C459"/>
<path d="M56.1724 21.9985C56.123 21.9105 56.0845 21.8005 56.0845 21.7621C56.09 21.7236 56.1395 21.7841 56.1999 21.8995C56.2604 22.0205 56.2989 22.1249 56.2824 22.1414C56.2714 22.1579 56.2164 22.0919 56.1724 21.9985Z" fill="#98C459"/>
<path d="M70.3841 21.5202C70.3841 21.4598 70.4006 21.4433 70.4171 21.4873C70.4336 21.5257 70.4281 21.5752 70.4116 21.5917C70.3951 21.6137 70.3786 21.5807 70.3841 21.5202Z" fill="#98C459"/>
<path d="M56.1724 21.1352C56.1504 21.0582 56.1449 20.9813 56.1559 20.9648C56.1724 20.9538 56.1999 21.0088 56.2164 21.0912C56.2384 21.1682 56.2439 21.2452 56.2329 21.2617C56.2164 21.2727 56.1889 21.2177 56.1724 21.1352Z" fill="#98C459"/>
<path d="M68.6304 17.7595C68.6304 17.6825 68.6414 17.6551 68.6579 17.6935C68.6689 17.7265 68.6689 17.7925 68.6579 17.831C68.6414 17.864 68.6304 17.8365 68.6304 17.7595Z" fill="#98C459"/>
<path d="M68.4214 14.3948L68.262 14.2134L68.4434 14.3728C68.5369 14.4663 68.6193 14.5432 68.6193 14.5542C68.6193 14.5982 68.5753 14.5597 68.4214 14.3948Z" fill="#98C459"/>
<path d="M65.4856 13.8558C65.4416 13.8283 65.4306 13.8008 65.4581 13.8008C65.4911 13.8008 65.5516 13.8283 65.5955 13.8558C65.6395 13.8832 65.656 13.9107 65.623 13.9107C65.5955 13.9107 65.5296 13.8832 65.4856 13.8558Z" fill="#98C459"/>
<path d="M59.0585 19.3149L62.4097 23.8771C62.4383 23.916 62.5 23.8958 62.5 23.8475V20.3441C62.5 20.3165 62.5224 20.2941 62.55 20.2941H65.907C65.9469 20.2941 65.9707 20.2498 65.9487 20.2165L62.5917 15.1387C62.5644 15.0974 62.5 15.1167 62.5 15.1663V19.1853C62.5 19.2129 62.4776 19.2353 62.45 19.2353H59.0988C59.0578 19.2353 59.0342 19.2819 59.0585 19.3149Z" stroke="#8FB856"/>
</g>
</g>
<defs>
<filter id="filter0_d_120_165" x="47" y="4" width="35.5442" height="35.54" filterUnits="userSpaceOnUse" color-interpolation-filters="sRGB">
<feFlood flood-opacity="0" result="BackgroundImageFix"/>
<feColorMatrix in="SourceAlpha" type="matrix" values="0 0 0 0 0 0 0 0 0 0 0 0 0 0 0 0 0 0 127 0" result="hardAlpha"/>
<feOffset dx="2" dy="2"/>
<feGaussianBlur stdDeviation="5"/>
<feComposite in2="hardAlpha" operator="out"/>
<feColorMatrix type="matrix" values="0 0 0 0 0 0 0 0 0 0 0 0 0 0 0 0 0 0 0.25 0"/>
<feBlend mode="normal" in2="BackgroundImageFix" result="effect1_dropShadow_120_165"/>
<feBlend mode="normal" in="SourceGraphic" in2="effect1_dropShadow_120_165" result="shape"/>
</filter>
<linearGradient id="paint0_linear_120_165" x1="0.979824" y1="18.8723" x2="205.014" y2="17.5566" gradientUnits="userSpaceOnUse">
<stop stop-color="#95C057"/>
<stop offset="1" stop-color="#A4D169"/>
</linearGradient>
<linearGradient id="paint1_linear_120_165" x1="-8.02018" y1="20.9158" x2="196.014" y2="19.6001" gradientUnits="userSpaceOnUse">
<stop stop-color="#95C057"/>
<stop offset="1" stop-color="#A4D169"/>
</linearGradient>
<clipPath id="clip0_120_165">
<rect width="200" height="40" fill="white"/>
</clipPath>
</defs>
</svg>
