<svg width="200" height="40" viewBox="0 0 200 40" fill="none" xmlns="http://www.w3.org/2000/svg">

<style>
@import url("https://api.fontshare.com/v2/css?f[]=satoshi@700,500,400");
</style>
<g clip-path="url(#clip0_108_6)">
<path d="M3 19.53C4.04308 20.4572 7.21321 19.825 8.53788 19.825C9.85727 19.825 10.9836 19.2351 12.3226 19.2351C14.628 19.2351 16.907 19.53 19.204 19.53C22.9987 19.53 26.8127 19.1495 30.5911 18.8747C34.7486 18.5723 38.9079 18.6453 43.0759 18.6453C51.0385 18.6453 59.0163 18.3504 66.9969 18.3504C68.7609 18.3504 69.1256 18.3504 70.8896 18.3504C72.9996 18.3504 76.8164 18.853 78.8896 19.0713C82.5336 19.4549 86.7263 19.0713 90.3896 19.0713C95.9603 19.0713 96.819 19.0726 102.39 19.0726C104.485 19.0726 109.827 19.7626 111.775 19.0713C114.045 18.2658 117.999 19.0726 120.39 19.0726C124.954 19.0726 128.326 18.2905 132.89 18.3505C138.816 18.4285 143.835 18.6453 149.786 18.6453C154.194 18.6453 158.601 18.6453 163.009 18.6453C164.679 18.6453 166.204 19.2351 167.891 19.2351C170.065 19.2351 172.238 19.2351 174.412 19.2351C178.91 19.2351 183.375 18.9402 187.863 18.9402C189.88 18.9402 191.869 18.5921 193.876 18.4159C197.676 18.0826 201.171 17.9016 205.018 18.0555" stroke="url(#paint0_linear_108_6)" stroke-width="3" stroke-linecap="round"/>
<path d="M-6 21.5735C-4.95692 22.5007 -1.78679 21.8684 -0.462124 21.8684C0.857267 21.8684 1.98356 21.2786 3.32264 21.2786C5.62801 21.2786 7.90696 21.5735 10.204 21.5735C13.9987 21.5735 17.8127 21.1929 21.5911 20.9181C25.7486 20.6158 29.9079 20.6888 34.0759 20.6888C42.0385 20.6888 50.0163 20.3938 57.9969 20.3938C59.7609 20.3938 60.1256 20.3938 61.8896 20.3938C63.9996 20.3938 67.8164 20.8965 69.8896 21.1147C73.5336 21.4983 77.7263 21.1147 81.3896 21.1147C86.9603 21.1147 87.819 21.1161 93.3896 21.1161C95.4846 21.1161 100.827 21.806 102.775 21.1147C105.045 20.3093 108.999 21.1161 111.39 21.1161C115.954 21.1161 119.326 20.3339 123.89 20.394C129.816 20.472 134.835 20.6888 140.786 20.6888C145.194 20.6888 149.601 20.6888 154.009 20.6888C155.679 20.6888 157.204 21.2786 158.891 21.2786C161.065 21.2786 163.238 21.2786 165.412 21.2786C169.91 21.2786 174.375 20.9837 178.863 20.9837C180.88 20.9837 182.869 20.6355 184.876 20.4594C188.676 20.1261 192.171 19.9451 196.018 20.0989" stroke="url(#paint1_linear_108_6)" stroke-width="3" stroke-linecap="round"/>
<g filter="url(#filter0_d_108_6)">
<rect x="60.1421" y="13" width="10.1004" height="10.1004" rx="2" transform="rotate(45 60.1421 13)" fill="#9AC65D"/>
<rect x="60.1421" y="16.1421" width="5.80223" height="5.80223" rx="1" transform="rotate(45 60.1421 16.1421)" fill="#2E2E2E"/>
</g>

<circle cx="27.4355" cy="20.521" r="14.6118" fill="#2E2E2E"/>
<path d="M25.5188 36.3565C25.4155 36.2876 25.404 36.2417 25.4844 36.2417C25.5533 36.2417 25.6566 36.2991 25.6911 36.3565C25.783 36.4943 25.737 36.4943 25.5188 36.3565Z" fill="#98C459"/>
<path d="M28.7344 36.3564C28.9526 36.299 29.4808 36.2416 29.9057 36.2301C30.8474 36.1957 31.123 36.0693 30.4799 35.9545C30.2158 35.9086 29.9516 35.9086 29.8827 35.9545C29.8253 35.989 29.7679 35.966 29.7679 35.9086C29.7679 35.8397 29.6531 35.7822 29.5153 35.7822C29.3201 35.7822 29.2856 35.8167 29.4119 35.8856C29.6301 36.0234 27.7353 36.1842 27.1611 36.0693C26.92 36.0234 26.7707 36.0349 26.8166 36.0923C26.8741 36.1382 27.23 36.2186 27.6205 36.2531C28.2865 36.322 28.2636 36.3335 27.4138 36.299C26.9085 36.2875 26.0013 36.1612 25.4042 36.0234C24.807 35.8741 24.0376 35.7363 23.7046 35.7019C23.3601 35.6674 23.1419 35.5985 23.2108 35.5641C23.2797 35.5181 23.0386 35.3918 22.6826 35.277C22.3151 35.1621 21.9247 34.9899 21.8213 34.8865C21.7065 34.7947 21.6146 34.7487 21.6146 34.7947C21.6146 34.8406 21.4309 34.7372 21.2127 34.565C20.6385 34.1286 20.7993 34.0942 21.5801 34.4961C22.6481 35.0473 23.1075 35.231 23.2567 35.1621C23.3371 35.1392 23.3142 35.1047 23.1993 35.1047C23.096 35.0932 22.9697 35.0358 22.9237 34.9669C22.8778 34.8865 22.9697 34.8521 23.1764 34.8636C23.762 34.9095 23.8194 34.8865 23.6931 34.6454C23.6242 34.5305 23.1534 34.2664 22.6251 34.0597C21.649 33.6808 21.4079 33.543 21.5227 33.4281C21.5572 33.3822 21.7639 33.4626 21.9706 33.6004C22.5218 33.9334 23.808 34.3238 23.9458 34.186C24.0606 34.0712 23.05 33.7152 22.6251 33.7152C22.5103 33.7152 22.4184 33.6578 22.4184 33.5889C22.4184 33.5085 22.5448 33.4855 22.7629 33.5315C22.9811 33.5659 23.096 33.5544 23.05 33.4855C23.0156 33.4166 22.8778 33.3707 22.7629 33.3707C22.6481 33.3707 22.5103 33.3133 22.4644 33.2444C22.4184 33.1525 22.4988 33.141 22.7629 33.1984C23.0271 33.2559 23.1075 33.2444 23.0615 33.1525C23.0156 33.0836 22.9352 33.0262 22.8778 33.0262C22.8204 33.0262 22.5792 32.8425 22.3381 32.6128C21.9361 32.2338 21.9247 32.1994 22.1888 32.2568C22.3495 32.2913 22.6711 32.3602 22.9122 32.3946C23.1419 32.4405 23.3716 32.5324 23.4175 32.6013C23.4634 32.6817 23.4175 32.6932 23.2682 32.6358C23.1534 32.5898 22.9008 32.5324 22.7055 32.498C22.384 32.452 22.3955 32.4635 22.8204 32.6702C23.073 32.7965 23.2338 32.8999 23.1649 32.9114C23.1075 32.9228 23.1764 32.9917 23.3371 33.0606C23.5323 33.1525 24.497 33.1984 26.3228 33.2099C28.8607 33.2099 29.7679 33.141 29.7679 32.9114C29.7679 32.8654 29.8713 32.8425 29.9976 32.8769C30.1239 32.9114 30.2273 32.8769 30.2273 32.808C30.2273 32.7506 30.3076 32.7161 30.411 32.7621C30.5143 32.7965 30.6292 32.785 30.6751 32.7161C30.7096 32.6587 31.1115 32.5094 31.5479 32.3946C33.3393 31.9238 35.1192 30.9706 37.06 29.4433C37.6571 28.9725 38.0131 28.5706 39.1385 27.1122C39.2878 26.9055 39.2878 26.917 39.1385 27.25C38.7825 27.9734 37.5652 29.3515 36.7958 29.8682C34.9585 31.1314 34.3154 31.6022 34.2695 31.74C34.1317 32.1534 37.1174 30.029 37.9786 29.0988C38.6677 28.3639 39.8734 26.6988 39.8734 26.4921C39.8734 26.4232 39.9997 26.1361 40.1605 25.8375C40.3213 25.5389 40.4476 25.2059 40.4476 25.0911C40.4476 24.9647 40.505 24.8729 40.5624 24.8729C40.7232 24.8729 40.7002 24.5169 40.528 24.3676C40.4476 24.2987 40.4132 24.2528 40.4361 24.2757C40.4706 24.2872 40.5624 24.1609 40.6428 23.9886C40.7232 23.8049 40.7691 23.759 40.7347 23.8738C40.7117 23.9772 40.7347 24.069 40.7921 24.069C40.9414 24.069 41.0907 23.7475 41.1825 23.2652C41.2514 22.9551 41.24 22.9092 41.1366 23.0355C41.0333 23.1733 41.0218 23.1504 41.0447 22.9207C41.0677 22.7599 41.1481 22.6451 41.2285 22.668C41.3204 22.6795 41.3663 22.5417 41.3663 22.2776C41.3663 21.9446 41.3318 21.8757 41.1825 21.9331C41.0333 21.9905 41.0103 21.9561 41.0677 21.7494C41.1022 21.6001 41.1366 21.313 41.1366 21.1063C41.1366 20.8536 41.1825 20.7503 41.2744 20.8077C41.3663 20.8651 41.3893 20.624 41.3433 19.9005C41.3089 19.3263 41.3204 18.9359 41.3778 18.9703C41.4352 19.0048 41.4811 18.867 41.4811 18.6718C41.4811 18.4765 41.4352 18.3387 41.3778 18.3732C41.3318 18.4076 41.2859 18.2354 41.2859 18.0057C41.2859 17.3856 40.6199 15.3071 40.149 14.4458C39.7356 13.6879 39.6782 13.5042 39.8849 13.5042C39.9423 13.5042 39.9768 13.5501 39.9423 13.596C39.9194 13.642 40.0342 13.9406 40.2179 14.2506C40.6888 15.0545 40.6428 14.6296 40.1605 13.6305C39.4256 12.1147 38.1509 10.5874 36.5776 9.31268C35.8772 8.74999 35.6819 8.4629 36.2561 8.84186C36.4169 8.94521 36.5432 9.00263 36.5432 8.96818C36.5432 8.88779 35.3604 8.10691 35.2341 8.10691C35.1652 8.10691 35.2226 8.1873 35.3489 8.29065C35.4637 8.394 35.2111 8.27917 34.7632 8.04949C34.3269 7.81982 33.8675 7.52125 33.7527 7.38345C33.6379 7.24565 33.5804 7.19971 33.6264 7.29158C33.6953 7.4179 33.6608 7.44087 33.4886 7.37197C32.5354 6.99301 31.1115 6.59108 30.1124 6.39586C29.4464 6.28103 29.01 6.16619 29.1363 6.15471C29.3315 6.13174 29.3201 6.12026 29.0789 6.03988C28.677 5.91356 28.4818 5.90207 28.5507 6.02839C28.5851 6.07433 28.0798 6.15471 27.4367 6.20064C26.7937 6.2351 26.0817 6.29251 25.8635 6.32696C25.5534 6.3729 25.519 6.36141 25.6913 6.28103C25.8176 6.22361 26.0702 6.16619 26.2539 6.16619C26.4377 6.15471 26.564 6.12026 26.5181 6.08581C26.4262 5.99394 25.2778 6.15471 25.3353 6.25806C25.3697 6.304 25.3008 6.33845 25.1975 6.34993C24.7726 6.36141 23.452 6.78631 22.4529 7.2112C21.8672 7.46383 21.339 7.63609 21.2816 7.60164C21.2242 7.5557 21.006 7.68202 20.8107 7.87724C20.6155 8.06098 20.3973 8.22175 20.3399 8.22175C20.271 8.22175 20.0988 8.3251 19.961 8.43994C19.8346 8.56625 19.2375 9.08301 18.6518 9.59977C18.0662 10.1165 17.3083 10.8859 16.9638 11.3223C16.3666 12.0687 15.9417 12.4821 16.1599 12.1147C16.5848 11.3797 17.848 10.0591 19.4327 8.68109L19.7198 8.43994L19.3294 8.64664C18.4796 9.10598 15.8728 11.9539 16.0451 12.241C16.0795 12.2869 15.7924 12.93 15.425 13.6649C15.0575 14.3999 14.6441 15.399 14.5063 15.8928C14.1273 17.3282 13.8747 19.6938 13.978 21.0833C14.024 21.7494 14.0699 22.4613 14.0814 22.668C14.0814 22.8633 14.1388 23.0355 14.1847 23.0355C14.2422 23.0355 14.2422 23.0814 14.2077 23.1504C14.1733 23.2078 14.1962 23.4489 14.2536 23.6901C14.4029 24.1954 14.3225 24.3332 14.1388 23.9083C13.978 23.5752 13.7713 23.4949 13.8747 23.8164C13.9206 23.9197 14.0699 24.2987 14.2307 24.6432C14.3914 24.9877 14.5407 25.4585 14.5752 25.6767L14.6211 26.0787L14.4374 25.7686C14.1733 25.2978 14.1158 25.3782 14.357 25.8834C14.4718 26.1131 14.69 26.6299 14.8278 27.0203C14.9771 27.4107 15.1608 27.8012 15.2527 27.8701C15.3446 27.939 15.4135 28.0538 15.4135 28.1112C15.4135 28.1801 15.5743 28.4328 15.781 28.6854C16.1025 29.0988 16.114 29.1333 15.8843 29.007C15.6661 28.8921 15.6317 28.8921 15.7121 29.0299C16.0106 29.5467 17.159 31.0051 17.6987 31.5678C18.0432 31.9238 18.2959 32.2223 18.2499 32.2223C18.1925 32.2223 18.0317 32.0845 17.871 31.9123C17.7102 31.7286 17.0441 31.0395 16.3781 30.3735C15.7235 29.696 15.1838 29.1103 15.1838 29.0759C15.1838 29.0299 14.9771 28.7314 14.713 28.4098C14.1847 27.7323 13.8058 27.0433 13.8058 26.7332C13.8058 26.6184 13.7599 26.4806 13.7139 26.4232C13.6565 26.3543 13.4957 25.9983 13.3464 25.6193C13.1972 25.2404 13.0479 24.8844 13.0019 24.8155C12.956 24.758 12.8527 24.4135 12.7838 24.069C12.7034 23.7245 12.6 23.2882 12.5426 23.0929C12.3014 22.3006 12.1981 21.6001 12.1866 20.8766C12.1751 20.4517 12.1177 20.0153 12.0603 19.889C11.9799 19.7512 11.9799 19.5905 12.0603 19.4297C12.1866 19.1541 12.4622 16.8574 12.3818 16.7311C12.3014 16.6162 12.7034 15.0659 13.0019 14.308C13.4153 13.2515 14.1847 11.862 14.6096 11.3797C15.1953 10.7137 16.0451 9.57681 16.1369 9.33565C16.1829 9.2323 16.2977 9.10598 16.4126 9.06005C16.5274 9.01411 17.0097 8.58922 17.492 8.1184C17.9743 7.63609 18.5829 7.11933 18.8471 6.95856C19.1112 6.79779 19.5016 6.55663 19.6968 6.41883C20.4892 5.86762 21.2471 5.45421 21.9591 5.17861C23.073 4.75372 24.9219 4.31734 25.6338 4.30586C26.3458 4.29438 27.3104 4.16806 27.6205 4.03026C27.7468 3.97284 27.8157 3.9958 27.8157 4.11064C27.8157 4.23696 28.2406 4.31734 29.6875 4.46663C30.7096 4.58147 31.6627 4.66185 31.8005 4.66185C32.0187 4.66185 33.3278 5.09822 34.0628 5.40828C34.2235 5.47718 34.258 5.4657 34.2006 5.37383C34.0742 5.16713 34.2006 5.20158 35.0389 5.61498C36.9796 6.56812 39.506 8.56625 40.7232 10.1165C41.3663 10.9204 41.4122 10.9663 41.217 10.5644C41.1136 10.3577 40.884 10.0247 40.7117 9.81796C40.4476 9.49642 40.4476 9.46197 40.6658 9.65719C41.0907 10.0132 41.6074 10.8285 41.5271 11.0122C41.4926 11.1041 41.5156 11.219 41.5845 11.2649C41.6649 11.3108 41.6878 11.2534 41.6419 11.1271C41.5041 10.7022 42.0438 11.506 42.5606 12.4707C43.2151 13.7338 43.8352 15.5253 44.1912 17.1789C44.9377 20.7733 44.1568 24.8614 42.0668 28.295C41.7108 28.8806 41.3204 29.5467 41.2055 29.7878C40.9873 30.2012 39.0466 32.2223 38.8629 32.2223C38.8169 32.2223 39.1385 31.8434 39.5863 31.3841C40.0227 30.9247 40.6658 30.1323 40.9988 29.6271C41.6534 28.6625 41.5385 28.7658 40.3328 30.2242C39.9194 30.718 39.1155 31.5104 38.5413 31.9812C36.7958 33.4281 35.3374 34.186 32.5584 35.1047C31.9153 35.3229 31.3756 35.5296 31.3756 35.5641C31.3756 35.7133 32.8455 35.277 34.0513 34.7832C34.4187 34.6339 34.7632 34.542 34.8207 34.5765C34.8666 34.6109 34.9355 34.5994 34.9585 34.542C35.0044 34.4387 36.1183 33.8875 36.5432 33.7726C36.704 33.7267 36.8992 33.6348 36.9911 33.5659C37.0714 33.497 37.2207 33.4281 37.3241 33.4166C37.6227 33.3707 38.9662 32.3946 39.816 31.6022C40.2524 31.2003 40.6543 30.8903 40.6888 30.9132C40.7347 30.9362 40.9414 30.7295 41.1481 30.4424C41.573 29.8453 41.6993 29.8338 41.4237 30.4194C41.2514 30.7869 40.3557 31.6597 39.5174 32.2798C39.3567 32.4061 38.9088 32.7391 38.5413 33.0262C38.1624 33.3018 37.5193 33.7726 37.1059 34.0597C36.6925 34.3468 36.348 34.6224 36.348 34.6683C36.3365 34.7258 36.2906 34.8061 36.2446 34.8406C36.1987 34.8865 36.1987 34.8521 36.2561 34.7602C36.3135 34.6569 36.2906 34.6224 36.1872 34.6569C36.0953 34.6913 36.0379 34.7717 36.0494 34.8291C36.0609 34.8865 35.9231 34.9325 35.7393 34.921C35.5556 34.9095 35.4293 34.9439 35.4523 34.9784C35.5556 35.1392 33.0867 36.0234 32.6273 36.0004C32.5354 36.0004 32.857 35.8741 33.3393 35.7363C34.4187 35.4148 34.6369 35.3344 34.5795 35.2655C34.5451 35.2425 34.1317 35.3344 33.6493 35.4837C33.167 35.633 32.5125 35.7937 32.1909 35.8397C31.5593 35.92 31.4675 36.1038 32.0876 36.0579C32.2943 36.0349 32.1335 36.0923 31.7316 36.1727C30.8703 36.3564 28.1028 36.5172 28.7344 36.3564ZM31.4904 36.0808C31.4904 36.0579 31.3871 36.0119 31.2608 35.9775C31.1344 35.943 31.0311 35.966 31.0311 36.0234C31.0311 36.0808 31.1344 36.1268 31.2608 36.1268C31.3871 36.1268 31.4904 36.1038 31.4904 36.0808ZM25.8635 35.5526C25.8635 35.4952 25.6683 35.4492 25.4386 35.4492C25.0022 35.4607 25.0022 35.4607 25.3467 35.5526C25.8405 35.6789 25.8635 35.6789 25.8635 35.5526ZM35.1652 35.0932C35.3145 34.9899 35.3145 34.9784 35.1652 34.9784C35.0733 34.9784 34.9125 35.0358 34.8207 35.0932C34.6714 35.1966 34.6714 35.2081 34.8207 35.2081C34.9125 35.2081 35.0733 35.1507 35.1652 35.0932ZM25.8061 34.9784C25.9669 34.9095 25.7487 34.875 25.1515 34.875C24.6348 34.8636 24.2558 34.8176 24.2558 34.7487C24.2558 34.6913 24.1754 34.6339 24.0836 34.6339C23.8654 34.6339 23.9113 34.898 24.141 35.0014C24.3821 35.1047 25.5305 35.0932 25.8061 34.9784ZM29.7105 34.0482C30.7899 33.7956 31.2608 33.6233 31.2608 33.4626C31.2608 33.4166 31.3756 33.3707 31.5134 33.3707C31.8005 33.3707 33.3737 32.7965 33.2934 32.7276C33.2704 32.7047 32.478 32.8769 31.5479 33.1066C30.3191 33.4166 29.9287 33.5544 30.1239 33.6119C30.2847 33.6578 30.5143 33.6119 30.6636 33.52C30.8129 33.4281 30.9966 33.3822 31.0655 33.4166C31.1459 33.4396 31.123 33.4741 31.0081 33.4741C30.9048 33.4855 30.8014 33.5315 30.7785 33.6004C30.767 33.6578 30.434 33.7726 30.055 33.8415C29.3545 33.9678 28.3325 34.2779 28.5851 34.2894C28.654 34.2894 29.1593 34.186 29.7105 34.0482ZM35.5671 31.3955C36.348 30.8673 37.3585 30.0405 37.0025 30.2242C36.7384 30.362 34.4762 32.0156 34.4762 32.0731C34.4762 32.1305 34.5565 32.0845 35.5671 31.3955ZM41.5615 19.2804C41.5271 19.1656 41.5041 19.2345 41.5041 19.4182C41.5041 19.6134 41.5271 19.6938 41.5615 19.6249C41.5845 19.5445 41.5845 19.3837 41.5615 19.2804ZM13.9666 17.6727C14.0355 17.087 14.2422 16.1454 14.4489 15.4908C14.5063 15.3186 14.4948 15.3186 14.4029 15.4564C14.1503 15.8468 13.5876 18.5225 13.7828 18.3962C13.8402 18.3617 13.9206 18.0402 13.9666 17.6727ZM15.8499 12.5281C15.8958 12.4592 15.8269 12.5051 15.7121 12.6429C15.4709 12.8955 14.4948 14.9052 14.4948 15.1348C14.4948 15.2152 14.7819 14.687 15.1379 13.975C15.4824 13.2515 15.8039 12.597 15.8499 12.5281ZM41.9749 11.7242C41.9405 11.6209 41.883 11.5635 41.8601 11.5979C41.8256 11.6324 41.8371 11.7013 41.883 11.7702C41.9864 11.9539 42.0553 11.9194 41.9749 11.7242ZM30.9507 6.304C30.8703 6.28103 30.7325 6.28103 30.6636 6.304C30.5832 6.33845 30.6407 6.36141 30.8014 6.36141C30.9622 6.36141 31.0196 6.33845 30.9507 6.304ZM27.5057 5.95949C27.3564 5.93652 27.1267 5.93652 26.9889 5.95949C26.8396 5.98246 26.9544 6.00542 27.2415 6.00542C27.5286 6.00542 27.6435 5.98246 27.5057 5.95949Z" fill="#98C459"/>
<path d="M21.4424 34.0946C21.0634 34.0372 20.8567 33.8994 20.6845 33.5778C20.5237 33.2792 20.6615 33.3252 21.385 33.773C21.7295 33.9912 21.9706 34.1635 21.9017 34.152C21.8443 34.152 21.6376 34.1175 21.4424 34.0946Z" fill="#98C459"/>
<path d="M37.634 34.0023C37.7603 33.8989 37.967 33.7611 38.0933 33.7037L38.323 33.5889L38.0933 33.7726C37.967 33.876 37.7603 34.0138 37.634 34.0712L37.4043 34.186L37.634 34.0023Z" fill="#98C459"/>
<path d="M39.2991 32.877C39.2991 32.8541 39.4713 32.6933 39.678 32.4981L40.0455 32.165L39.7125 32.544C39.3909 32.8885 39.2991 32.9689 39.2991 32.877Z" fill="#98C459"/>
<path d="M19.4784 32.2339C19.088 31.9928 18.732 31.7171 18.686 31.6368C18.6286 31.5334 18.6746 31.5449 18.8124 31.6597C18.9272 31.7631 19.3291 32.0157 19.6966 32.2224C20.0526 32.4176 20.3512 32.6129 20.3512 32.6358C20.3512 32.7507 20.133 32.6473 19.4784 32.2339Z" fill="#98C459"/>
<path d="M29.1363 32.5787C29.3315 32.5212 29.699 32.4753 29.9516 32.4638C30.2157 32.4638 30.6176 32.372 30.8358 32.2801C31.0655 32.1882 31.3756 32.1078 31.5134 32.1078C31.6626 32.1078 31.9612 32.016 32.1794 31.8896C32.834 31.5451 33.2244 31.4762 32.6962 31.7978C32.4435 31.9585 31.9268 32.1423 31.5478 32.2227C31.1688 32.3031 30.7784 32.4064 30.6865 32.4523C30.5947 32.4983 30.1238 32.5672 29.653 32.6016C29.1133 32.6476 28.9181 32.6361 29.1363 32.5787Z" fill="#98C459"/>
<path d="M38.1509 32.659C38.1509 32.636 38.2542 32.5327 38.3805 32.4178C38.5069 32.3145 38.6102 32.2685 38.6102 32.3374C38.6102 32.3949 38.5069 32.4982 38.3805 32.5671C38.2542 32.636 38.1509 32.6705 38.1509 32.659Z" fill="#98C459"/>
<path d="M18.514 32.2227C18.4221 32.1653 18.3992 32.1079 18.4566 32.1079C18.5255 32.1079 18.6518 32.1653 18.7437 32.2227C18.8356 32.2802 18.87 32.3376 18.8011 32.3376C18.7437 32.3376 18.6059 32.2802 18.514 32.2227Z" fill="#98C459"/>
<path d="M34.2465 31.0512C34.2809 31.0168 34.7058 30.7067 35.1996 30.3852C36.1757 29.7306 37.9212 28.1344 38.6332 27.2502C38.8743 26.9401 39.0695 26.7334 39.0695 26.7793C39.0695 26.8827 38.3461 27.7554 37.6341 28.5363C36.9795 29.2483 35.6819 30.2818 34.8781 30.7297C34.4991 30.9364 34.212 31.0857 34.2465 31.0512Z" fill="#98C459"/>
<path d="M17.9858 30.477L17.7676 30.2129L18.0317 30.4311C18.2729 30.6378 18.3418 30.7296 18.2499 30.7296C18.2269 30.7296 18.1121 30.6148 17.9858 30.477Z" fill="#98C459"/>
<path d="M15.0113 29.7303C14.4142 29.0068 13.461 27.5829 13.8285 27.9733C14.1041 28.2604 15.7692 30.4997 15.7118 30.4997C15.6774 30.4997 15.3558 30.1552 15.0113 29.7303Z" fill="#98C459"/>
<path d="M41.814 29.7538C42.0093 29.3748 42.17 29.1681 42.17 29.2944C42.17 29.3633 42.0552 29.5356 41.9289 29.6964C41.7796 29.8916 41.7337 29.9031 41.814 29.7538Z" fill="#98C459"/>
<path d="M42.3997 29.0991C42.3997 29.0531 42.503 28.8464 42.6293 28.6397C42.7556 28.433 42.859 28.3182 42.859 28.3756C42.859 28.4445 42.7556 28.6512 42.6293 28.8349C42.503 29.0302 42.3997 29.145 42.3997 29.0991Z" fill="#98C459"/>
<path d="M15.4708 27.7901C15.1952 27.3652 15.3445 27.3192 15.6431 27.7326C15.7809 27.9279 15.8383 28.0886 15.7809 28.0886C15.7235 28.0886 15.5857 27.9508 15.4708 27.7901Z" fill="#98C459"/>
<path d="M42.8591 27.9389C42.8591 27.6977 43.1347 27.1809 43.2381 27.2498C43.3185 27.2958 43.33 27.2498 43.284 27.1235C43.2381 27.0202 43.2496 26.9513 43.307 26.9857C43.3644 27.0202 43.4448 26.9742 43.4792 26.8709C43.5252 26.7675 43.5826 26.6986 43.6056 26.7331C43.64 26.7675 43.5711 27.0087 43.4448 27.2843C43.2725 27.6632 43.2151 27.7207 43.1692 27.5599C43.1233 27.3762 43.1118 27.3762 43.1003 27.5943C43.1003 27.7322 43.0429 27.8814 42.974 27.9159C42.9165 27.9503 42.8591 27.9618 42.8591 27.9389Z" fill="#98C459"/>
<path d="M15.0229 26.9861C14.931 26.7449 14.931 26.7104 15.0573 26.7104C15.1951 26.7104 15.31 27.032 15.1951 27.1124C15.1377 27.1468 15.0573 27.0894 15.0229 26.9861Z" fill="#98C459"/>
<path d="M39.5403 26.538C39.5403 26.4806 39.6092 26.2969 39.7011 26.1361C39.7929 25.9753 39.8618 25.9064 39.8618 25.9638C39.8618 26.0327 39.7929 26.205 39.7011 26.3658C39.6092 26.5265 39.5403 26.6069 39.5403 26.538Z" fill="#98C459"/>
<path d="M14.4489 24.8847C14.3455 24.7009 14.2651 24.4713 14.2651 24.3909C14.2766 24.3105 14.38 24.4368 14.5063 24.678C14.6326 24.9306 14.713 25.1488 14.6785 25.1832C14.6556 25.2177 14.5407 25.0799 14.4489 24.8847Z" fill="#98C459"/>
<path d="M44.1338 23.8855C44.1338 23.7591 44.1683 23.7247 44.2027 23.8166C44.2372 23.8969 44.2257 24.0003 44.1913 24.0347C44.1568 24.0807 44.1224 24.0118 44.1338 23.8855Z" fill="#98C459"/>
<path d="M14.4488 23.0816C14.4028 22.9208 14.3913 22.76 14.4143 22.7256C14.4488 22.7026 14.5062 22.8174 14.5406 22.9897C14.5866 23.1505 14.5981 23.3112 14.5751 23.3457C14.5406 23.3687 14.4832 23.2538 14.4488 23.0816Z" fill="#98C459"/>
<path d="M40.4705 16.0308C40.4705 15.87 40.4934 15.8126 40.5279 15.893C40.5508 15.9619 40.5508 16.0997 40.5279 16.1801C40.4934 16.249 40.4705 16.1916 40.4705 16.0308Z" fill="#98C459"/>
<path d="M40.0342 9.00298L39.7012 8.62402L40.0801 8.95705C40.2753 9.15227 40.4476 9.31304 40.4476 9.336C40.4476 9.42787 40.3557 9.34749 40.0342 9.00298Z" fill="#98C459"/>
<path d="M33.902 7.87704C33.8101 7.81962 33.7871 7.76221 33.8445 7.76221C33.9134 7.76221 34.0398 7.81962 34.1316 7.87704C34.2235 7.93446 34.2579 7.99188 34.189 7.99188C34.1316 7.99188 33.9938 7.93446 33.902 7.87704Z" fill="#98C459"/>
</g>
<text xmlns="http://www.w3.org/2000/svg" x="22" y="27" style="font: 1.3rem &quot;Satoshi&quot;,sans-serif;color: white;fill:#a0cc64">9</text>
<defs>
<filter id="filter0_d_108_6" x="45.8284" y="5.82861" width="32.6274" height="32.627" filterUnits="userSpaceOnUse" color-interpolation-filters="sRGB">
<feFlood flood-opacity="0" result="BackgroundImageFix"/>
<feColorMatrix in="SourceAlpha" type="matrix" values="0 0 0 0 0 0 0 0 0 0 0 0 0 0 0 0 0 0 127 0" result="hardAlpha"/>
<feOffset dx="2" dy="2"/>
<feGaussianBlur stdDeviation="5"/>
<feComposite in2="hardAlpha" operator="out"/>
<feColorMatrix type="matrix" values="0 0 0 0 0 0 0 0 0 0 0 0 0 0 0 0 0 0 0.25 0"/>
<feBlend mode="normal" in2="BackgroundImageFix" result="effect1_dropShadow_108_6"/>
<feBlend mode="normal" in="SourceGraphic" in2="effect1_dropShadow_108_6" result="shape"/>
</filter>
<linearGradient id="paint0_linear_108_6" x1="0.979824" y1="18.8723" x2="205.014" y2="17.5566" gradientUnits="userSpaceOnUse">
<stop stop-color="#95C057"/>
<stop offset="1" stop-color="#A4D169"/>
</linearGradient>
<linearGradient id="paint1_linear_108_6" x1="-8.02018" y1="20.9158" x2="196.014" y2="19.6001" gradientUnits="userSpaceOnUse">
<stop stop-color="#95C057"/>
<stop offset="1" stop-color="#A4D169"/>
</linearGradient>
<clipPath id="clip0_108_6">
<rect width="200" height="40" fill="white"/>
</clipPath>
</defs>
</svg>
